<?xml version="1.0" standalone="no"?><!DOCTYPE svg PUBLIC "-//W3C//DTD SVG 1.1//EN" "http://www.w3.org/Graphics/SVG/1.1/DTD/svg11.dtd"><svg t="1720914531308" class="icon" viewBox="0 0 1024 1024" version="1.1" xmlns="http://www.w3.org/2000/svg" p-id="8246" xmlns:xlink="http://www.w3.org/1999/xlink" width="200" height="200"><path d="M1024.2 281.1c0-20.5-14.5-37.2-32.4-37.2H716.7c-17.9 0-32.4 16.6-32.4 37.2 0 6.9-4.9 12.5-10.9 12.5H34.2C15.3 293.5 0 311.1 0 332.8v362.1c0 21.7 15.3 39.3 34.2 39.3h955.5c18.9 0 34.2-17.6 34.2-39.3V370.4c0-0.5 0.1-1 0.1-1.5 0.1-0.8 0.1-1.7 0.1-2.6v-85.2zM314 673c0 17.7-14.3 32-32 32H70c-17.7 0-32-14.3-32-32V352c0-17.7 14.3-32 32-32s32 14.3 32 32v289h180c17.7 0 32 14.3 32 32z m304.6-63.5L510.4 694c-11.2 12.1-30 13.8-43.2 3.5l-111.9-87.4c-2.8-2.2-5.1-4.7-6.9-7.5l-0.1-0.1-0.6-0.9c-3-4.9-4.8-10.7-4.8-16.9v-232c0-17.7 14.3-32 32-32s32 14.3 32 32v216.5l79.6 62.2 79.9-62.4V352.3c0-17.7 14.3-32 32-32s32 14.3 32 32v227c1.9 11.1-2.3 22.8-11.8 30.2zM951 672c0 17.7-14.3 32-32 32H786c-17.7 0-32-14.3-32-32s14.3-32 32-32h34V342.6l-0.6 0.1c-17.6 1.8-33.3-10.9-35.2-28.5-1.8-17.6 10.9-33.3 28.5-35.2l33.4-3.5c1.9-0.4 3.9-0.5 5.9-0.5 17.7 0 32 14.3 32 32v333h35c17.7 0 32 14.3 32 32z" fill="#FFFFFF" p-id="8247"></path></svg>